<svg width="217" height="254" xmlns="http://www.w3.org/2000/svg" xmlns:xlink="http://www.w3.org/1999/xlink" xml:space="preserve" overflow="hidden"><defs><filter id="fx0" x="-10%" y="-10%" width="120%" height="120%" filterUnits="userSpaceOnUse" primitiveUnits="userSpaceOnUse"><feComponentTransfer color-interpolation-filters="sRGB"><feFuncR type="discrete" tableValues="0 0"/><feFuncG type="discrete" tableValues="0 0"/><feFuncB type="discrete" tableValues="0 0"/><feFuncA type="linear" slope="0.4" intercept="0"/></feComponentTransfer><feGaussianBlur stdDeviation="1.77778 1.77778"/></filter><clipPath id="clip1"><rect x="536" y="216" width="217" height="254"/></clipPath><clipPath id="clip2"><rect x="1" y="1" width="216" height="253"/></clipPath></defs><g clip-path="url(#clip1)" transform="translate(-536 -216)"><g clip-path="url(#clip2)" filter="url(#fx0)" transform="translate(535 215)"><g><g><g><path d="M229.319 66.6845C198.353 64.2178 169.479 50.0886 148.53 27.1514 144.581 22.5746 137.67 22.0656 133.093 26.0145 132.686 26.3651 132.307 26.7451 131.956 27.1514 111.007 50.0886 82.1328 64.2178 51.1673 66.6845 45.4133 67.2237 41.0282 72.0754 41.0717 77.8546L41.0717 106.037C41.0717 167.305 80.0383 223.351 134.143 258.032 137.859 260.42 142.627 260.42 146.343 258.032 200.448 223.342 239.414 167.305 239.414 106.037L239.414 77.8546C239.458 72.0754 235.073 67.2237 229.319 66.6845ZM220.438 106.037C220.438 154.792 191.391 203.977 142.738 237.636L140.244 239.362 137.754 237.636C89.0976 203.974 60.0455 154.778 60.0455 106.037L60.0455 84.8672 63.7358 84.2833C91.2291 79.9359 116.819 67.5417 137.275 48.6653L140.242 45.9326 143.211 48.6653C163.666 67.5417 189.255 79.9359 216.747 84.2833L220.438 84.8672Z" fill="#46B1E1" transform="matrix(1 0 0 1.00367 -31.1676 -14.3957)"/><path d="M140.242 57.7712C119.971 75.4994 95.2901 87.4259 68.8041 92.2915L68.8041 106.037C68.8041 151.076 95.4504 196.725 140.244 228.685 185.033 196.731 211.679 151.079 211.679 106.037L211.679 92.2915C185.193 87.4259 160.512 75.4994 140.242 57.7712ZM132.744 171.763 103.222 142.238 113.254 132.207 132.744 151.698 172.66 111.782 182.691 121.817Z" fill="#46B1E1" transform="matrix(1 0 0 1.00367 -31.1676 -14.3957)"/></g></g></g></g><g><g><path d="M229.319 66.6845C198.353 64.2178 169.479 50.0886 148.53 27.1514 144.581 22.5746 137.67 22.0656 133.093 26.0145 132.686 26.3651 132.307 26.7451 131.956 27.1514 111.007 50.0886 82.1328 64.2178 51.1673 66.6845 45.4133 67.2237 41.0282 72.0754 41.0717 77.8546L41.0717 106.037C41.0717 167.305 80.0383 223.351 134.143 258.032 137.859 260.42 142.627 260.42 146.343 258.032 200.448 223.342 239.414 167.305 239.414 106.037L239.414 77.8546C239.458 72.0754 235.073 67.2237 229.319 66.6845ZM220.438 106.037C220.438 154.792 191.391 203.977 142.738 237.636L140.244 239.362 137.754 237.636C89.0976 203.974 60.0455 154.778 60.0455 106.037L60.0455 84.8672 63.7358 84.2833C91.2291 79.9359 116.819 67.5417 137.275 48.6653L140.242 45.9326 143.211 48.6653C163.666 67.5417 189.255 79.9359 216.747 84.2833L220.438 84.8672Z" fill="#46B1E1" transform="matrix(1 0 0 1.00367 499.832 200.604)"/><path d="M140.242 57.7712C119.971 75.4994 95.2901 87.4259 68.8041 92.2915L68.8041 106.037C68.8041 151.076 95.4504 196.725 140.244 228.685 185.033 196.731 211.679 151.079 211.679 106.037L211.679 92.2915C185.193 87.4259 160.512 75.4994 140.242 57.7712ZM132.744 171.763 103.222 142.238 113.254 132.207 132.744 151.698 172.66 111.782 182.691 121.817Z" fill="#46B1E1" transform="matrix(1 0 0 1.00367 499.832 200.604)"/></g></g></g></svg>